<?xml version="1.0" encoding="UTF-8"?>
<svg width="40px" height="30px" viewBox="0 0 75 36" version="1.1" xmlns="http://www.w3.org/2000/svg" xmlns:xlink="http://www.w3.org/1999/xlink">
    <!-- Generator: Sketch 49.1 (51147) - http://www.bohemiancoding.com/sketch -->
    <title>Page 1 Copy</title>
    <desc>Created with Sketch.</desc>
    <defs></defs>
    <g id="Page-1" stroke="none" stroke-width="1" fill="none" fill-rule="evenodd">
        <g id="Desktop-HD" transform="translate(-127.000000, -2071.000000)" fill="#008aff">
            <g id="Technologiebasierte-Ideen" transform="translate(-1.000000, 2051.000000)">
                <g id="header" transform="translate(1.000000, 0.000000)">
                    <g id="Page-1-Copy" transform="translate(127.000000, 20.000000)">
                        <path d="M0.102040816,2.3920161 C0.102040816,1.07712446 1.0755102,0.000217337461 2.34795918,0.000217337461 C3.62040816,0.000217337461 4.63061224,1.07712446 4.63061224,2.3920161 L4.63061224,11.479982 C5.90408163,9.52720495 7.7377551,7.81349907 10.8071429,7.81349907 C15.2612245,7.81349907 17.8438776,11.0018396 17.8438776,15.8647653 L17.8438776,27.1065455 C17.8438776,28.4616446 16.8714286,29.4983443 15.5979592,29.4983443 C14.3255102,29.4983443 13.3153061,28.4616446 13.3153061,27.1065455 L13.3153061,17.3394 C13.3153061,14.0717313 11.7795918,12.1971957 9.08571429,12.1971957 C6.46530612,12.1971957 4.63061224,14.1510594 4.63061224,17.4198149 L4.63061224,27.1065455 C4.63061224,28.4616446 3.62040816,29.4983443 2.34795918,29.4983443 C1.1122449,29.4983443 0.102040816,28.4616446 0.102040816,27.1065455 L0.102040816,2.3920161 Z" id="Fill-1"></path>
                        <path d="M37.0968367,18.814904 L37.0968367,18.7355759 C37.0968367,14.669192 34.5141837,11.9992012 31.4447959,11.9992012 C28.3754082,11.9992012 25.6805102,14.7093994 25.6805102,18.7355759 L25.6805102,18.814904 C25.6805102,22.8410805 28.3754082,25.5512786 31.4447959,25.5512786 C34.5519388,25.5512786 37.0968367,22.9606161 37.0968367,18.814904 Z M21.2631633,10.4441517 C21.2631633,9.08905263 22.2366327,8.01214551 23.510102,8.01214551 C24.782551,8.01214551 25.7927551,9.08905263 25.7927551,10.4441517 L25.7927551,11.7590433 C27.2529592,9.56719505 29.3111224,7.81328173 32.5305102,7.81328173 C37.1723469,7.81328173 41.7009184,11.7199226 41.7009184,18.7355759 L41.7009184,18.814904 C41.7009184,25.7903498 37.2090816,29.7371981 32.5305102,29.7371981 C29.2366327,29.7371981 27.177449,27.9832848 25.7927551,26.0305077 L25.7927551,33.484096 C25.7927551,34.839195 24.782551,35.8758947 23.510102,35.8758947 C22.2743878,35.8758947 21.2631633,34.839195 21.2631633,33.484096 L21.2631633,10.4441517 Z" id="Fill-3"></path>
                        <path d="M44.3343878,10.444043 C44.3343878,9.08894396 45.3078571,8.01203684 46.5803061,8.01203684 C47.8527551,8.01203684 48.8629592,9.08894396 48.8629592,10.444043 L48.8629592,11.4405353 C50.1364286,9.56708638 51.8578571,7.81317307 54.8894898,7.81317307 C57.7343878,7.81317307 59.7558163,9.28780774 60.8037755,11.5198635 C62.3762245,9.28780774 64.4721429,7.81317307 67.4660204,7.81317307 C71.770102,7.81317307 74.3915306,10.7233217 74.3915306,15.865526 L74.3915306,27.1062195 C74.3915306,28.4613186 73.4170408,29.4980183 72.1445918,29.4980183 C70.8721429,29.4980183 69.8619388,28.4613186 69.8619388,27.1062195 L69.8619388,17.3401607 C69.8619388,13.9920771 68.4017347,12.1979563 65.8568367,12.1979563 C63.3864286,12.1979563 61.6272449,14.0311978 61.6272449,17.4194889 L61.6272449,27.1062195 C61.6272449,28.4613186 60.6170408,29.4980183 59.3813265,29.4980183 C58.1088776,29.4980183 57.0976531,28.4613186 57.0976531,27.1062195 L57.0976531,17.2999533 C57.0976531,14.0311978 55.6007143,12.1979563 53.092551,12.1979563 C50.5843878,12.1979563 48.8629592,14.1909409 48.8629592,17.4194889 L48.8629592,27.1062195 C48.8629592,28.4613186 47.8527551,29.4980183 46.5803061,29.4980183 C45.3445918,29.4980183 44.3343878,28.4613186 44.3343878,27.1062195 L44.3343878,10.444043 Z" id="Fill-5"></path>
                    </g>
                </g>
            </g>
        </g>
    </g>
</svg>
